<svg xmlns="http://www.w3.org/2000/svg" viewBox="0 0 900 240">
  <defs>
    <linearGradient id="g" x1="0" x2="1">
      <stop offset="0" stop-color="#9fb3c8"/>
      <stop offset="1" stop-color="#5b7aa3"/>
    </linearGradient>
  </defs>
  <rect width="900" height="240" fill="none"/>
  <g transform="translate(52,36)">
    <circle cx="84" cy="84" r="78" fill="none" stroke="url(#g)" stroke-width="10"/>
    <path d="M84 34c30 0 54 24 54 54s-24 54-54 54-54-24-54-54" fill="none" stroke="url(#g)" stroke-width="14" stroke-linecap="round"/>
    <path d="M62 92c10 10 18 14 30 14 16 0 28-10 28-24 0-12-8-18-22-22l-18-5c-10-3-15-8-15-15 0-10 9-18 22-18 10 0 18 4 26 12" fill="none" stroke="#cfe0f2" stroke-width="8" stroke-linecap="round"/>
  </g>
  <text x="220" y="132" fill="#8ea9c3" font-family="Arial Black, Arial" font-size="92" letter-spacing="1">teamspeak</text>
  <text x="225" y="186" fill="#b7c8d9" font-family="Arial, Helvetica" font-size="22">Official Sponsor</text>
</svg>